<svg xmlns="http://www.w3.org/2000/svg" width="320" height="260" viewBox="0 0 320 260"><ellipse cx="160" cy="236" rx="82" ry="7" fill="#637b6d" opacity=".08"/><path d="M85 93 Q88 51 130 65 Q160 49 191 65 Q235 55 237 100 C229 153 182 210 158 217 C132 203 94 161 85 93Z" fill="#df7e83"/><path d="M116 66 L99 41 L146 51 L160 27 L174 51 L222 42 L201 68 L169 84 L159 63 L143 82Z" fill="#86a775"/><circle cx="141" cy="123" r="4.5" fill="#3c4b50"/><circle cx="179" cy="123" r="4.5" fill="#3c4b50"/><path d="M148 138 Q160 150 172 138" fill="none" stroke="#3c4b50" stroke-width="4" stroke-linecap="round"/><ellipse cx="115" cy="105" rx="3" ry="5" fill="#ffe4be"/><ellipse cx="199" cy="98" rx="3" ry="5" fill="#ffe4be"/><ellipse cx="122" cy="155" rx="3" ry="5" fill="#ffe4be"/><ellipse cx="183" cy="158" rx="3" ry="5" fill="#ffe4be"/><ellipse cx="153" cy="185" rx="3" ry="5" fill="#ffe4be"/></svg>