<svg xmlns="http://www.w3.org/2000/svg" width="440" height="300" viewBox="0 0 440 300"><ellipse cx="220" cy="260" rx="208" ry="51" fill="#fff" opacity=".38"/><circle cx="50" cy="55" r="8" fill="#fff"/><path d="M0 -30 L9 -10 L30 -9 L14 7 L18 29 L0 18 L-18 29 L-14 7 L-30 -9 L-9 -10 Z" fill="#fff" transform="translate(391 62) scale(0.34)"/><g transform="translate(39 10) scale(1.17)"><g stroke-linecap="round" stroke-linejoin="round"><path d="M136 125 L130 92 M184 125 L188 92" stroke="#dbb491" stroke-width="16"/><path d="M147 168 L131 204 M174 168 L191 204" stroke="#5e8194" stroke-width="19"/><path d="M128 112 Q160 99 192 112 L186 168 Q162 183 135 167Z" fill="#df9b70"/><circle cx="160" cy="71" r="33" fill="#edc8a5"/><path d="M131 56 Q134 31 165 34 Q186 35 191 54" fill="#786454"/><circle cx="148" cy="71" r="4.5" fill="#3c4b50"/><circle cx="172" cy="71" r="4.5" fill="#3c4b50"/><path d="M148 86 Q160 98 172 86" fill="none" stroke="#3c4b50" stroke-width="4" stroke-linecap="round"/><path d="M124 206 L141 206 M186 206 L203 206" stroke="#c4715b" stroke-width="10"/><path d="M152 84 L159 71 M167 83 L174 72" stroke="#e2ac5d" stroke-width="4"/></g></g><g transform="translate(260 101) scale(.46) rotate(8 160 130)"><g stroke-linecap="round" stroke-linejoin="round"><path d="M136 125 L88 63 M184 125 L232 63" stroke="#dbb491" stroke-width="16"/><path d="M147 168 L113 207 M174 168 L206 207" stroke="#5e8194" stroke-width="19"/><path d="M128 112 Q160 99 192 112 L186 168 Q162 183 135 167Z" fill="#df9b70"/><circle cx="160" cy="71" r="33" fill="#edc8a5"/><path d="M131 56 Q134 31 165 34 Q186 35 191 54" fill="#786454"/><circle cx="148" cy="71" r="4.5" fill="#3c4b50"/><circle cx="172" cy="71" r="4.5" fill="#3c4b50"/><path d="M148 86 Q160 98 172 86" fill="none" stroke="#3c4b50" stroke-width="4" stroke-linecap="round"/><path d="M106 209 L123 209 M201 209 L218 209" stroke="#c4715b" stroke-width="10"/></g></g></svg>