<svg xmlns="http://www.w3.org/2000/svg" width="320" height="260" viewBox="0 0 320 260"><ellipse cx="160" cy="236" rx="82" ry="7" fill="#637b6d" opacity=".08"/><g transform="translate(159 90) scale(1.1)" fill="#c0d5df"><rect x="-62" y="-6" width="124" height="43" rx="22"/><circle cx="-32" cy="-5" r="29"/><circle cx="8" cy="-22" r="39"/><circle cx="42" cy="-5" r="24"/></g><circle cx="139" cy="92" r="4.5" fill="#3c4b50"/><circle cx="179" cy="92" r="4.5" fill="#3c4b50"/><path d="M147 107 Q159 119 171 107" fill="none" stroke="#3c4b50" stroke-width="4" stroke-linecap="round"/><g transform="translate(107 178)" stroke="#89b0ca" stroke-width="4" stroke-linecap="round"><path d="M-14 0 L14 0" transform="rotate(0)"/><path d="M-14 0 L14 0" transform="rotate(60)"/><path d="M-14 0 L14 0" transform="rotate(120)"/></g><g transform="translate(160 178)" stroke="#89b0ca" stroke-width="4" stroke-linecap="round"><path d="M-14 0 L14 0" transform="rotate(0)"/><path d="M-14 0 L14 0" transform="rotate(60)"/><path d="M-14 0 L14 0" transform="rotate(120)"/></g><g transform="translate(213 178)" stroke="#89b0ca" stroke-width="4" stroke-linecap="round"><path d="M-14 0 L14 0" transform="rotate(0)"/><path d="M-14 0 L14 0" transform="rotate(60)"/><path d="M-14 0 L14 0" transform="rotate(120)"/></g></svg>